<?xml version="1.0" standalone="no"?>
<!DOCTYPE svg PUBLIC "-//W3C//DTD SVG 20010904//EN"
 "http://www.w3.org/TR/2001/REC-SVG-20010904/DTD/svg10.dtd">
<svg version="1.0" xmlns="http://www.w3.org/2000/svg"
 width="1180.000000pt" height="1280.000000pt" viewBox="0 0 1180.000000 1280.000000"
 preserveAspectRatio="xMidYMid meet">

<g transform="translate(0.000000,1280.000000) scale(0.100000,-0.100000)"
fill="#000000" stroke="none">
<path d="M0 6400 l0 -6400 5900 0 5900 0 0 6400 0 6400 -5900 0 -5900 0 0
-6400z m6618 5246 c2 -101 -1 -153 -9 -162 -6 -8 -32 -24 -58 -37 -43 -21 -57
-22 -216 -19 -210 3 -255 -2 -255 -29 0 -33 44 -84 256 -294 111 -110 220
-224 243 -253 l41 -54 0 -146 c0 -81 -4 -152 -8 -158 -10 -15 -67 -44 -87 -44
-16 0 -58 39 -109 100 -16 19 -72 80 -125 136 -53 55 -107 114 -120 130 -12
16 -55 63 -94 104 -40 41 -85 91 -101 110 -31 39 -166 184 -327 354 -153 162
-158 169 -161 260 -3 88 2 97 84 132 l53 23 495 -2 495 -2 3 -149z m715 -37
c12 -7 24 -15 27 -19 3 -3 30 -20 60 -37 193 -107 196 -109 187 -145 -3 -13
-21 -61 -40 -108 -60 -143 -139 -343 -153 -385 -7 -22 -22 -65 -34 -95 -12
-30 -39 -102 -60 -160 -73 -198 -91 -245 -136 -357 -24 -61 -44 -115 -44 -120
0 -5 -18 -46 -40 -91 -33 -67 -47 -85 -83 -107 -68 -39 -81 -36 -242 61 -44
27 -92 55 -107 63 -16 8 -28 23 -28 33 0 16 33 103 127 338 53 133 135 346
148 385 7 22 50 135 95 250 45 116 92 239 105 275 59 169 64 178 108 205 46
27 77 31 110 14z m448 -516 c30 -32 67 -74 81 -95 15 -20 33 -42 40 -50 24
-25 103 -115 153 -173 28 -32 70 -81 95 -109 26 -28 59 -67 74 -86 16 -19 47
-55 70 -80 23 -25 49 -55 57 -66 8 -12 41 -51 74 -87 33 -36 92 -102 130 -147
39 -45 96 -111 128 -147 31 -36 60 -75 63 -87 3 -12 4 -55 2 -96 l-3 -75 -60
-30 c-66 -32 -83 -34 -280 -22 -336 20 -466 29 -525 37 -36 5 -102 10 -147 10
-114 0 -113 -2 -113 171 0 136 1 141 25 163 13 12 43 31 65 41 34 16 48 17 93
7 48 -10 273 -32 325 -32 16 0 22 6 22 23 -1 34 -37 86 -135 192 -239 259
-284 308 -335 366 l-55 62 -3 154 c-3 138 -2 157 15 175 19 22 48 36 74 37 8
1 40 -25 70 -56z m-2348 -1748 c15 -74 -14 -148 -54 -138 -23 6 -25 19 -3 27
13 5 15 18 9 82 -7 75 -7 76 16 72 18 -2 25 -12 32 -43z m-116 -111 c-3 -3 6
-16 19 -28 21 -18 27 -35 36 -104 6 -45 15 -82 19 -82 5 0 9 7 9 16 0 8 5 12
10 9 6 -3 10 -26 10 -50 0 -24 5 -47 10 -50 6 -3 10 -18 10 -32 0 -23 5 -57
26 -171 5 -27 45 -48 71 -37 10 4 27 9 37 10 36 4 46 33 41 117 -2 43 -2 78 0
78 1 0 29 -15 62 -33 32 -18 75 -41 96 -51 59 -27 61 -39 48 -263 -18 -304
-29 -425 -38 -458 -11 -35 -107 -98 -217 -142 -42 -17 -71 -34 -74 -45 -2 -10
-9 -18 -14 -18 -5 0 -47 -22 -94 -50 -47 -27 -89 -50 -94 -50 -6 0 -10 -4 -10
-9 0 -5 -15 -14 -32 -22 -18 -7 -46 -23 -61 -36 -16 -13 -33 -23 -38 -23 -5 0
-36 -18 -69 -41 -67 -45 -135 -63 -146 -36 -3 8 -20 21 -37 28 l-31 13 24 7
c20 6 16 7 -17 8 -32 1 -43 5 -43 17 0 8 -4 12 -10 9 -5 -3 -15 -1 -22 5 -49
41 -62 49 -71 43 -5 -3 -7 -2 -4 3 3 5 -9 18 -26 28 l-32 18 20 -22 20 -23
-33 17 c-18 9 -30 21 -27 26 3 5 -10 14 -29 21 -19 7 -33 16 -31 19 2 4 -20
19 -50 35 -30 15 -66 38 -80 51 -15 13 -31 21 -37 18 -6 -4 -13 -2 -17 3 -3 5
-23 19 -43 32 -21 12 -38 27 -38 32 0 5 -7 9 -15 9 -8 0 -15 5 -15 11 0 5 -4
8 -8 5 -4 -2 -9 -24 -11 -47 -1 -23 -4 -46 -7 -51 -3 -5 16 -18 43 -30 26 -11
51 -26 55 -32 12 -17 9 -51 -8 -103 -23 -71 -34 -91 -58 -97 -18 -5 -11 -12
44 -48 36 -23 84 -54 108 -70 24 -15 45 -28 48 -28 2 0 28 -15 57 -34 28 -18
90 -57 137 -86 98 -60 133 -82 212 -133 45 -29 68 -37 103 -37 25 0 45 -4 45
-9 0 -5 12 -12 26 -15 29 -8 72 -50 85 -83 5 -14 17 -23 29 -23 12 0 35 -7 52
-16 17 -9 55 -24 84 -34 80 -28 244 -148 273 -200 l24 -42 49 6 c28 4 74 16
102 27 28 10 57 19 64 19 7 0 41 -18 76 -40 35 -22 68 -40 74 -40 6 0 12 -4
14 -9 2 -5 30 -23 63 -40 33 -18 94 -52 135 -77 41 -25 112 -64 157 -86 92
-45 112 -43 137 17 14 32 26 42 164 129 23 15 48 39 53 54 6 15 15 35 20 44 5
10 9 53 9 97 l0 80 105 -65 c58 -35 108 -64 113 -64 4 0 19 -10 34 -23 27 -22
28 -24 29 -138 1 -76 -3 -123 -11 -135 -7 -10 -57 -46 -113 -79 -55 -32 -95
-61 -89 -63 16 -5 221 117 232 139 6 10 10 68 10 129 0 86 3 112 14 116 12 5
324 -162 350 -187 6 -5 16 -9 24 -9 15 0 51 39 51 55 1 11 17 2 -804 472 -341
195 -629 364 -640 374 -20 19 -20 35 -23 742 -2 397 0 732 3 745 8 34 33 28
134 -33 51 -30 94 -55 96 -55 2 0 42 -22 87 -49 46 -26 103 -60 128 -73 25
-14 196 -112 380 -219 184 -106 364 -209 400 -229 36 -20 89 -51 118 -68 29
-18 54 -32 56 -32 2 0 43 -24 92 -53 49 -29 117 -68 152 -87 34 -18 73 -43 87
-56 l25 -23 0 -520 c0 -286 3 -526 6 -535 5 -13 11 -13 45 7 l40 22 -3 520 -3
520 -24 42 c-13 23 -36 48 -50 55 -14 7 -69 38 -121 69 -101 60 -738 424 -925
529 -27 16 -75 43 -106 62 -30 18 -182 105 -337 193 -155 88 -281 163 -282
168 0 4 12 7 28 7 29 0 36 -4 312 -165 102 -59 210 -121 240 -138 30 -16 60
-33 65 -37 11 -8 141 -82 245 -138 36 -19 92 -51 125 -72 33 -20 67 -40 75
-43 8 -4 30 -16 48 -27 36 -22 177 -103 367 -211 66 -38 136 -78 155 -89 19
-12 64 -38 100 -59 36 -21 76 -54 89 -72 l23 -34 -5 -531 c-5 -399 -4 -533 5
-542 7 -7 32 -12 58 -12 94 -1 173 -60 221 -165 24 -54 33 -65 54 -65 13 0 27
5 30 10 10 16 84 12 115 -7 38 -22 64 -72 58 -111 -6 -42 28 -62 75 -43 95 39
113 43 170 37 36 -4 69 -14 84 -26 27 -21 59 -26 65 -11 6 17 141 111 197 138
46 22 71 27 136 27 76 1 83 -1 138 -37 163 -106 197 -240 105 -424 -11 -23
-29 -51 -38 -61 -10 -10 -21 -28 -24 -40 -6 -18 -1 -25 31 -39 21 -10 47 -28
58 -40 11 -12 58 -44 105 -70 142 -78 174 -97 210 -120 19 -13 40 -21 45 -20
15 5 22 52 24 147 1 91 17 258 26 281 3 8 21 22 40 31 l34 17 11 -57 c23 -117
62 -206 97 -219 9 -3 29 -1 45 5 l30 11 -7 -117 c-4 -64 -11 -121 -16 -126
-17 -19 -9 -24 32 -19 25 4 50 1 65 -8 78 -41 125 -248 123 -544 0 -141 -8
-191 -24 -166 -4 8 -2 17 6 22 26 16 -3 24 -96 27 -84 4 -94 2 -98 -15 -3 -15
-6 -12 -16 11 -21 53 -42 247 -43 401 -1 124 2 160 17 203 10 28 16 54 13 58
-9 9 -105 10 -114 2 -4 -4 -2 -13 3 -20 17 -21 22 -84 12 -125 -26 -97 -119
-76 -119 27 0 16 -5 30 -11 30 -8 0 -10 -20 -7 -60 4 -57 3 -59 -14 -43 -10 9
-18 22 -18 30 0 22 -22 15 -108 -33 -50 -29 -82 -53 -82 -63 1 -38 51 -299 84
-432 38 -153 85 -277 142 -370 39 -65 39 -63 18 -125 -20 -61 -7 -109 47 -164
41 -42 163 -107 231 -122 69 -17 296 -21 358 -8 164 35 275 101 321 191 24 47
24 73 0 125 l-19 42 25 20 26 21 32 -25 c57 -43 68 -98 55 -256 -13 -146 -24
-190 -60 -239 -30 -43 -37 -67 -71 -269 -43 -252 -42 -248 -27 -273 10 -14 12
-29 7 -42 -19 -48 -11 -61 60 -104 38 -22 80 -45 93 -51 12 -6 91 -50 173 -98
129 -75 150 -91 153 -114 3 -22 -3 -30 -35 -48 -21 -11 -45 -25 -53 -30 -27
-18 -314 -182 -335 -192 -11 -5 -29 -14 -40 -21 -91 -55 -336 -198 -385 -224
-19 -10 -83 -47 -142 -82 -92 -53 -108 -67 -110 -89 -1 -15 -2 -35 -3 -44 0
-9 -10 -27 -21 -40 -21 -25 -38 -81 -50 -166 -6 -50 -9 -54 -53 -79 -69 -39
-168 -96 -243 -140 -37 -22 -110 -61 -162 -87 l-96 -48 -40 18 c-22 10 -40 21
-40 24 0 4 -25 15 -55 26 -45 15 -59 16 -75 6 -24 -15 -26 -5 -4 19 15 17 15
18 -7 16 -13 0 -27 -6 -31 -12 -5 -6 -8 -2 -8 9 0 14 -3 16 -12 8 -14 -11
-108 -65 -208 -120 -36 -19 -67 -38 -70 -41 -3 -3 -18 -13 -35 -23 -16 -9
-169 -96 -340 -194 -170 -97 -339 -194 -375 -214 -36 -20 -126 -72 -200 -115
-279 -162 -327 -186 -357 -179 -15 3 -37 12 -48 19 -11 6 -51 29 -90 50 -38
21 -72 41 -75 45 -3 4 -36 24 -75 44 -38 21 -104 58 -145 82 -41 24 -88 51
-105 59 -16 9 -43 24 -60 34 -41 25 -148 87 -215 124 -30 17 -87 50 -127 74
-39 23 -74 43 -77 43 -2 0 -26 13 -53 29 -251 150 -318 185 -334 176 -5 -4 -9
-2 -9 2 0 5 -19 30 -43 55 -26 28 -59 81 -81 132 -31 69 -44 88 -71 100 -48
23 -120 31 -163 18 -49 -15 -123 -22 -117 -12 6 9 -19 20 -46 20 -11 0 -22 7
-26 16 -3 8 -15 20 -27 24 -11 5 -43 23 -71 39 -27 17 -72 42 -99 56 -27 14
-75 41 -105 59 -150 89 -233 136 -241 136 -17 0 -18 29 -2 43 20 17 55 26 140
37 68 9 176 59 327 152 96 60 132 92 151 137 16 39 19 105 4 96 -5 -3 -10 -13
-10 -21 0 -35 -52 -76 -217 -170 -188 -106 -242 -124 -337 -110 -41 7 -46 10
-47 34 0 15 -4 36 -8 47 -9 22 24 55 53 55 9 0 34 18 56 40 46 46 52 86 21
133 l-18 28 -7 -40 c-4 -30 -15 -46 -43 -69 -61 -47 -84 -55 -150 -54 -107 1
-188 51 -199 122 -4 22 -10 40 -14 40 -14 0 -41 -39 -51 -73 -5 -19 -25 -54
-44 -78 -19 -24 -35 -49 -35 -55 0 -7 -7 -15 -16 -18 -14 -5 -65 21 -246 127
-17 10 -62 35 -100 55 -37 20 -77 42 -89 48 l-21 12 23 16 c13 9 27 16 32 16
28 0 138 66 321 194 115 80 207 146 205 147 -2 1 -33 3 -68 4 -100 6 -166 47
-159 101 6 51 24 53 150 17 32 -10 52 42 56 149 3 60 1 98 -5 98 -6 0 -40 -13
-76 -30 -183 -83 -367 -98 -535 -44 -61 20 -66 28 -75 125 l-6 65 102 -2 c86
-2 111 -6 157 -28 103 -49 158 -32 405 123 49 31 124 74 165 95 41 22 122 67
180 101 58 34 202 117 320 185 118 68 225 130 237 139 21 15 22 24 22 131 0
75 -4 120 -12 130 -7 9 -49 37 -94 63 -105 62 -154 65 -240 20 -32 -17 -78
-42 -103 -55 -25 -12 -47 -26 -50 -29 -9 -12 -378 -219 -389 -219 -6 0 -11 12
-12 28 0 15 -2 35 -4 44 -2 10 -5 48 -7 85 -2 57 -1 67 12 63 42 -13 147 -2
190 20 80 41 107 64 434 381 161 156 332 319 458 438 49 46 72 62 85 57 17 -7
180 -101 245 -142 21 -13 40 -24 43 -24 3 0 46 -25 96 -55 130 -79 196 -115
212 -115 8 0 21 8 31 18 15 18 15 19 -12 20 -16 0 -51 14 -78 30 -83 50 -151
90 -256 150 -254 146 -263 153 -236 180 17 17 38 82 38 118 0 22 -12 44 -41
78 -49 55 -83 75 -152 86 -48 7 -55 6 -88 -20 -50 -41 -91 -58 -97 -42 -2 6
-8 12 -14 12 -6 0 -6 -6 2 -15 10 -12 8 -17 -13 -26 -22 -10 -32 -7 -79 22
-68 43 -70 45 -213 127 -66 38 -159 92 -207 120 -47 27 -89 48 -92 44 -17 -16
1 -35 67 -73 39 -23 106 -63 147 -87 41 -25 91 -54 110 -64 19 -11 60 -34 90
-51 30 -18 69 -39 85 -48 41 -22 42 -40 3 -69 -195 -145 -393 -280 -411 -280
-14 0 -47 -23 -84 -58 -59 -55 -109 -90 -117 -81 -13 14 -86 172 -86 186 0 10
-13 44 -29 76 -16 31 -27 57 -25 57 3 0 -8 12 -25 26 -17 14 -46 56 -65 93
-54 109 -138 265 -148 278 -13 17 -6 54 12 64 8 4 36 18 63 30 26 12 55 30 66
40 10 9 27 19 37 22 10 3 -10 4 -46 2 -87 -4 -202 16 -227 41 -12 10 -32 37
-47 58 -14 21 -26 33 -26 26 0 -10 -3 -10 -15 0 -8 7 -15 18 -15 25 0 31 -76
58 -86 30 -4 -8 -15 -15 -25 -15 -14 0 -19 -7 -19 -25 0 -22 -4 -25 -40 -25
-22 0 -40 -4 -40 -9 0 -5 -36 -12 -80 -16 l-80 -7 0 -33 0 -33 -80 -7 c-57 -5
-80 -11 -80 -21 0 -7 -11 -25 -25 -39 -25 -24 -30 -25 -154 -25 l-129 0 -6
-25 c-5 -20 -13 -25 -36 -25 -20 0 -30 5 -30 15 0 10 -10 15 -30 15 -30 0 -40
-13 -17 -24 6 -3 -21 -4 -60 -2 -59 4 -73 2 -73 -10 0 -8 -3 -14 -6 -14 -6 0
-52 23 -84 42 -8 4 -26 14 -40 21 -14 7 -45 24 -70 38 -78 45 -408 222 -610
326 -58 30 -109 58 -113 63 -9 8 19 149 55 280 36 129 86 217 166 293 64 59
122 87 187 87 69 0 235 -36 265 -58 20 -15 36 -17 87 -12 75 7 91 20 134 111
31 65 35 69 67 69 31 0 92 34 189 106 19 14 29 14 72 4 28 -6 64 -9 81 -5 39
9 70 56 70 108 0 48 31 81 85 91 57 11 126 46 135 70 5 12 14 55 20 96 19 131
42 143 174 90 43 -18 98 -32 127 -33 48 -2 53 0 70 28 10 17 21 35 23 40 11
25 26 121 26 170 0 52 1 54 45 82 25 15 45 31 45 36 0 4 5 7 11 7 6 0 63 32
128 70 74 45 127 70 146 70 30 0 57 -15 317 -173 122 -74 151 -87 162 -69 3 5
1 87 -5 182 -5 95 -8 174 -7 176 2 1 68 -35 148 -81 122 -70 147 -81 159 -70
17 16 8 43 -16 52 -10 4 -38 19 -63 34 -81 48 -174 100 -202 112 -36 15 -35
31 2 59 17 12 30 30 30 40 0 22 18 24 26 3 4 -8 10 -15 15 -15 11 0 -17 72
-53 133 -15 26 -28 50 -28 53 0 3 -14 34 -31 70 -17 36 -29 67 -27 68 2 1 16
12 32 24 25 19 111 34 93 16z m-177 -76 c0 -4 6 -8 13 -8 19 0 106 -182 89
-188 -9 -3 -10 -7 -2 -17 8 -10 -3 -8 -36 5 -56 21 -108 67 -131 116 -16 32
-15 37 0 69 13 27 22 34 42 33 14 -1 25 -6 25 -10z m457 -95 c-2 -16 -4 -3 -4
27 0 30 2 43 4 28 2 -16 2 -40 0 -55z m4614 -114 c25 -66 39 -204 39 -380 0
-86 3 -159 6 -162 4 -4 24 11 46 33 33 35 41 39 59 30 43 -24 57 -127 21 -161
-12 -11 -22 -15 -22 -9 0 5 -9 10 -20 10 -11 0 -20 5 -20 10 0 17 -29 11 -39
-8 -5 -10 -17 -62 -26 -117 -9 -55 -19 -107 -22 -115 -3 -8 -8 -24 -10 -35 -6
-33 -12 -45 -23 -45 -5 0 -10 7 -10 15 0 18 -12 19 -27 4 -6 -6 -27 -11 -47
-11 -27 0 -36 -4 -36 -17 0 -22 -23 -71 -33 -71 -8 0 -1 40 15 82 7 19 7 78
-1 190 -25 377 -6 676 51 795 24 49 74 29 99 -38z m-4630 14 c16 4 18 0 15
-26 -3 -30 -6 -32 -40 -31 -31 1 -36 -1 -30 -15 13 -30 16 -79 5 -85 -7 -5
-11 5 -12 28 -2 41 -2 41 -18 81 -7 17 -15 42 -18 57 l-5 27 42 -20 c23 -11
51 -18 61 -16z m4089 -564 c138 -65 229 -197 232 -337 2 -58 -18 -96 -64 -120
-17 -10 -43 -27 -58 -40 -58 -46 -115 -39 -217 27 -130 84 -219 330 -146 403
25 25 152 96 173 97 8 1 44 -13 80 -30z m640 -89 c0 -5 -4 -10 -10 -10 -5 0
-10 5 -10 10 0 6 5 10 10 10 6 0 10 -4 10 -10z m-130 -320 c0 -5 -2 -10 -4
-10 -3 0 -8 5 -11 10 -3 6 -1 10 4 10 6 0 11 -4 11 -10z m95 -68 c18 -12 45
-60 45 -79 0 -10 9 -37 20 -60 12 -28 21 -77 25 -140 7 -117 12 -143 26 -143
19 0 38 27 72 102 38 82 59 105 104 114 27 5 34 1 59 -30 34 -42 54 -44 109
-11 77 48 174 24 269 -64 76 -71 126 -181 126 -276 0 -44 -5 -57 -27 -80 -32
-32 -155 -105 -176 -105 -47 0 -196 97 -230 149 -10 16 -29 37 -43 45 -23 16
-25 16 -34 -8 -5 -13 -17 -34 -26 -44 -17 -20 -17 -20 -33 -1 -12 14 -32 19
-86 21 l-70 3 0 -57 c3 -419 6 -538 15 -538 6 0 10 14 10 32 0 50 31 200 47
233 27 53 58 60 74 18 39 -100 72 -317 84 -540 7 -148 14 -165 57 -126 15 13
23 14 41 5 12 -6 38 -13 57 -14 l35 -3 0 -65 c0 -36 -3 -74 -7 -85 l-7 -20 -1
20 c0 13 -3 16 -8 8 -4 -6 -34 -13 -67 -16 l-60 -4 -8 -169 c-4 -93 -10 -214
-15 -269 l-7 -100 -43 -3 c-33 -2 -42 0 -36 9 4 7 3 10 -4 5 -6 -3 -13 -2 -17
4 -4 6 -16 5 -35 -5 -16 -8 -49 -15 -74 -15 l-44 0 -9 73 c-5 39 -10 164 -11
277 -3 228 -10 318 -23 282 -10 -26 -27 -29 -25 -4 1 13 -8 18 -41 20 -24 2
-43 7 -43 13 0 5 -20 9 -45 9 -28 0 -45 -4 -45 -12 0 -6 -7 -3 -15 8 -14 18
-14 18 -15 -10 0 -16 -3 -26 -7 -22 -7 7 -31 409 -32 544 l-1 62 -75 0 c-43 0
-75 -4 -75 -10 0 -21 -40 -10 -44 13 -8 39 -16 81 -21 107 -2 14 -6 98 -9 188
-3 90 -8 167 -11 172 -3 5 -23 1 -45 -7 -53 -21 -73 -7 -50 35 21 36 39 38 73
6 34 -31 52 -26 71 20 8 19 26 42 40 51 24 16 28 16 51 1 33 -22 61 -78 80
-165 27 -116 38 -95 55 99 24 281 45 442 64 496 16 48 63 77 91 56z m-4697
-221 l1 -69 -87 -52 c-48 -29 -125 -75 -172 -102 -47 -27 -132 -78 -190 -113
-58 -36 -113 -65 -122 -65 -15 0 -18 9 -18 45 0 77 13 91 175 181 11 6 83 49
160 96 118 71 247 147 251 148 1 0 2 -31 2 -69z m5276 -1090 c12 -13 16 -32
14 -57 -2 -30 -7 -38 -25 -40 -13 -2 -23 0 -23 4 0 7 -19 12 -62 15 -36 3 -8
70 36 87 32 13 41 12 60 -9z m-1070 -152 c33 -38 33 -56 1 -71 -14 -6 -25 -15
-25 -19 0 -4 -11 -6 -25 -4 -14 1 -25 -3 -25 -8 0 -29 -20 14 -26 54 -5 35 -2
49 11 62 26 26 60 21 89 -14z m-8673 -130 c19 -7 48 -22 64 -34 17 -12 39 -25
50 -29 42 -16 175 -99 175 -110 0 -7 -34 -88 -76 -182 -42 -93 -84 -194 -94
-224 -10 -30 -25 -71 -33 -90 -16 -37 -27 -66 -76 -200 -18 -47 -38 -98 -46
-115 -8 -16 -22 -52 -31 -80 -15 -47 -73 -189 -114 -280 -10 -23 -22 -54 -26
-70 -19 -78 -111 -195 -154 -195 -8 0 -46 18 -84 40 -37 22 -70 40 -72 40 -1
0 -23 14 -47 30 -25 17 -50 30 -55 30 -6 0 -17 9 -25 21 -17 23 -11 59 20 129
35 79 122 301 203 520 15 41 44 118 65 170 56 144 163 419 185 475 11 28 20
57 20 65 1 30 51 74 116 100 1 0 16 -5 35 -11z m9911 -106 c25 -22 24 -84 -2
-114 -16 -19 -21 -21 -29 -10 -5 7 -14 10 -20 7 -6 -4 -11 -4 -11 1 0 4 -18
14 -41 21 -31 9 -45 10 -55 2 -17 -15 -34 -4 -34 21 0 15 5 19 19 14 13 -4 30
6 57 35 42 44 83 53 116 23z m-9232 -245 c19 -11 60 -35 90 -51 90 -50 130
-77 130 -88 0 -10 -48 -128 -100 -244 -10 -22 -26 -60 -37 -85 -11 -25 -26
-52 -34 -60 -8 -8 -19 -28 -25 -45 -7 -16 -25 -64 -42 -105 -17 -41 -56 -145
-87 -230 -65 -180 -112 -301 -162 -420 -78 -187 -82 -194 -129 -224 -57 -36
-82 -36 -141 1 -26 17 -85 51 -130 77 -94 54 -98 63 -63 151 10 27 44 115 75
195 77 200 113 295 199 515 40 105 99 258 131 340 100 261 98 257 130 277 44
27 149 25 195 -4z m8210 -108 c0 -5 -7 -10 -15 -10 -8 0 -15 5 -15 10 0 6 7
10 15 10 8 0 15 -4 15 -10z m537 -266 c-3 -3 -12 -4 -19 -1 -8 3 -5 6 6 6 11
1 17 -2 13 -5z m449 -246 c15 -70 -32 -246 -63 -234 -7 3 -13 1 -13 -3 0 -5
-17 -1 -38 9 -21 10 -50 22 -65 25 -32 8 -34 29 -12 93 26 74 52 108 107 142
39 24 74 10 84 -32z m-739 -180 c-3 -8 -6 -5 -6 6 -1 11 2 17 5 13 3 -3 4 -12
1 -19z m250 -43 c48 -34 50 -185 5 -328 -16 -48 -20 -52 -47 -51 -58 2 -128
13 -138 23 -5 5 -10 52 -10 103 0 101 21 172 69 236 20 26 32 32 62 32 21 0
47 -7 59 -15z m-8363 -444 c110 -76 175 -182 184 -301 9 -135 -34 -184 -174
-194 -77 -6 -80 -6 -149 31 -48 26 -81 53 -108 88 -52 68 -87 138 -87 174 0
20 -9 39 -26 54 -21 20 -23 26 -12 35 7 6 29 24 48 40 47 39 118 83 150 93 14
4 49 8 78 8 43 1 61 -4 96 -28z m8434 -63 c32 -32 2 -61 -51 -51 -37 7 -41 30
-9 47 33 19 45 19 60 4z m-518 -17 c0 -13 -34 -23 -54 -15 -9 3 -13 10 -10 15
7 12 64 12 64 0z m90 -30 c0 -11 5 -23 10 -26 18 -11 10 -26 -11 -23 -31 4
-46 32 -30 52 18 22 31 20 31 -3z m560 -5 c0 -14 -21 -26 -46 -26 -20 0 -17
28 4 33 32 9 42 7 42 -7z m-334 -59 c8 -27 -27 -57 -67 -57 -38 0 -42 11 -19
58 19 39 21 41 50 31 16 -6 32 -20 36 -32z m-313 -12 c-4 -15 -36 -12 -41 3
-3 9 3 13 19 10 13 -1 23 -7 22 -13z m467 -5 c0 -16 -7 -20 -35 -20 -22 0 -35
5 -35 13 0 20 10 27 42 27 21 0 28 -5 28 -20z m-6446 -1345 c-1 -22 -9 -60
-19 -85 -23 -61 -55 -188 -55 -225 0 -16 -7 -65 -14 -108 -12 -68 -12 -95 1
-195 28 -227 71 -367 130 -433 19 -21 65 -53 103 -72 72 -37 103 -61 183 -142
193 -196 212 -307 74 -443 -132 -129 -341 -202 -583 -202 -105 0 -281 24 -299
41 -5 5 -15 9 -23 9 -22 0 -133 51 -168 77 -17 13 -36 23 -41 23 -6 0 -11 17
-11 38 0 32 1 34 9 14 5 -13 7 -28 4 -33 -4 -5 1 -6 9 -3 17 6 22 24 8 24 -12
0 -33 71 -25 83 3 5 6 58 5 117 0 78 -4 116 -16 138 -20 38 -20 46 -1 38 9 -3
15 0 15 10 0 9 -5 12 -12 8 -8 -5 -8 -3 -2 7 5 8 9 21 9 29 0 8 30 43 67 78
54 49 74 62 100 62 26 0 43 11 89 59 120 123 159 266 159 586 0 182 -12 284
-46 396 -44 145 -55 129 87 130 68 0 144 4 169 9 25 4 56 7 70 6 22 -1 25 -5
24 -41z m1571 -805 c3 -5 1 -10 -4 -10 -6 0 -11 5 -11 10 0 6 2 10 4 10 3 0 8
-4 11 -10z m501 -301 c19 -22 19 -22 -3 -10 -24 12 -39 31 -25 31 5 0 17 -10
28 -21z m51 -25 c-3 -3 -12 -4 -19 -1 -8 3 -5 6 6 6 11 1 17 -2 13 -5z m-2862
-174 c-3 -5 -11 -10 -16 -10 -6 0 -7 5 -4 10 3 6 11 10 16 10 6 0 7 -4 4 -10z
m-25 -35 c0 -8 -6 -15 -14 -15 -8 0 -17 -6 -19 -12 -4 -9 -6 -10 -6 -1 -1 11
25 43 35 43 2 0 4 -7 4 -15z"/>
<path d="M5630 8806 c0 -31 3 -56 6 -56 8 0 95 52 92 55 -2 1 -24 14 -50 29
l-48 28 0 -56z"/>
<path d="M6190 8672 c0 -8 63 -42 77 -42 3 0 -11 11 -31 25 -40 27 -46 29 -46
17z"/>
<path d="M6440 8530 c0 -5 5 -10 10 -10 6 0 10 5 10 10 0 6 -4 10 -10 10 -5 0
-10 -4 -10 -10z"/>
<path d="M6380 8491 c0 -9 24 -21 43 -21 6 0 2 7 -9 15 -22 17 -34 19 -34 6z"/>
<path d="M6560 8461 c0 -13 21 -28 55 -40 l30 -11 -35 30 c-35 31 -50 37 -50
21z"/>
<path d="M6205 8450 c3 -5 11 -10 16 -10 6 0 7 5 4 10 -3 6 -11 10 -16 10 -6
0 -7 -4 -4 -10z"/>
<path d="M6550 8397 c0 -13 48 -42 57 -33 2 2 -10 14 -26 26 -23 16 -31 18
-31 7z"/>
<path d="M6475 8370 c-3 -5 1 -13 10 -16 22 -9 29 1 11 15 -10 8 -16 9 -21 1z"/>
<path d="M6365 8360 c3 -5 8 -10 11 -10 2 0 4 5 4 10 0 6 -5 10 -11 10 -5 0
-7 -4 -4 -10z"/>
<path d="M6740 8355 c7 -9 15 -13 17 -11 7 7 -7 26 -19 26 -6 0 -6 -6 2 -15z"/>
<path d="M6670 8327 c0 -14 40 -37 63 -37 12 1 -13 23 -45 41 -13 7 -18 6 -18
-4z"/>
<path d="M6562 8318 c5 -15 77 -58 97 -58 8 0 -8 16 -35 35 -52 37 -68 43 -62
23z"/>
<path d="M6450 8310 c0 -5 27 -24 61 -40 68 -35 70 -26 4 20 -45 31 -65 37
-65 20z"/>
<path d="M6820 8307 c0 -11 117 -77 136 -77 4 0 -23 20 -59 45 -72 49 -77 51
-77 32z"/>
<path d="M6384 8289 c-7 -12 13 -29 35 -29 11 0 10 5 -4 20 -21 23 -22 23 -31
9z"/>
<path d="M6186 8257 c4 -11 20 -22 92 -57 41 -20 23 5 -27 38 -53 34 -74 40
-65 19z"/>
<path d="M6850 8220 c0 -11 52 -40 72 -40 7 0 -4 11 -24 25 -41 27 -48 30 -48
15z"/>
<path d="M6550 8190 c0 -5 14 -16 30 -25 36 -18 38 -13 8 15 -24 22 -38 26
-38 10z"/>
<path d="M6480 8161 c0 -5 7 -11 15 -15 8 -3 15 -1 15 3 0 5 -7 11 -15 15 -8
3 -15 1 -15 -3z"/>
<path d="M6880 8137 c0 -8 11 -19 25 -25 32 -15 32 -2 0 21 -19 14 -25 15 -25
4z"/>
<path d="M6760 8132 c0 -8 43 -32 57 -32 3 0 -2 9 -12 20 -18 20 -45 27 -45
12z"/>
<path d="M7140 8126 c0 -8 9 -18 21 -21 31 -10 33 0 4 19 -21 14 -25 14 -25 2z"/>
<path d="M6670 8120 c0 -11 59 -44 66 -37 6 6 -45 47 -57 47 -5 0 -9 -4 -9
-10z"/>
<path d="M6440 8110 c0 -5 7 -10 16 -10 8 0 12 5 9 10 -3 6 -10 10 -16 10 -5
0 -9 -4 -9 -10z"/>
<path d="M6560 8110 c0 -10 119 -74 126 -67 6 5 -102 77 -116 77 -5 0 -10 -4
-10 -10z"/>
<path d="M6380 8080 c0 -9 32 -30 46 -30 4 0 -1 9 -11 20 -19 21 -35 26 -35
10z"/>
<path d="M6880 8068 c0 -15 67 -55 76 -46 3 3 -7 15 -23 25 -46 32 -53 35 -53
21z"/>
<path d="M6990 8070 c0 -10 22 -24 64 -40 36 -13 32 -5 -11 25 -40 27 -53 31
-53 15z"/>
<path d="M7110 8070 c0 -5 5 -10 10 -10 6 0 10 5 10 10 0 6 -4 10 -10 10 -5 0
-10 -4 -10 -10z"/>
<path d="M7252 8058 c5 -16 55 -41 70 -36 6 2 -4 14 -24 26 -40 25 -51 27 -46
10z"/>
<path d="M6192 8039 c4 -13 116 -74 124 -67 4 4 -87 65 -112 75 -12 4 -15 2
-12 -8z"/>
<path d="M6560 8041 c0 -11 61 -43 68 -36 7 6 -40 44 -55 45 -7 0 -13 -4 -13
-9z"/>
<path d="M6840 8021 c0 -11 53 -45 93 -60 42 -16 32 1 -23 37 -51 33 -70 39
-70 23z"/>
<path d="M7220 8010 c0 -10 58 -50 73 -50 16 0 5 16 -26 38 -37 24 -47 27 -47
12z"/>
<path d="M6551 7976 c2 -2 15 -9 29 -16 23 -12 24 -12 11 3 -7 10 -20 17 -29
17 -8 0 -13 -2 -11 -4z"/>
<path d="M7162 7968 c4 -15 109 -71 116 -63 7 7 -23 30 -70 55 -43 23 -51 25
-46 8z"/>
<path d="M7062 7959 c2 -7 10 -15 17 -17 8 -3 12 1 9 9 -2 7 -10 15 -17 17 -8
3 -12 -1 -9 -9z"/>
<path d="M6475 7950 c3 -5 11 -10 16 -10 6 0 7 5 4 10 -3 6 -11 10 -16 10 -6
0 -7 -4 -4 -10z"/>
<path d="M6730 7946 c0 -2 7 -9 15 -16 12 -10 15 -10 15 4 0 9 -7 16 -15 16
-8 0 -15 -2 -15 -4z"/>
<path d="M6880 7931 c0 -6 9 -15 20 -21 13 -7 20 -7 20 -1 0 6 -9 15 -20 21
-13 7 -20 7 -20 1z"/>
<path d="M6670 7906 c0 -7 8 -16 18 -19 9 -2 26 -8 37 -12 15 -5 14 -1 -8 19
-31 29 -47 33 -47 12z"/>
<path d="M7150 7911 c0 -6 19 -20 42 -32 25 -13 38 -16 31 -8 -18 21 -73 51
-73 40z"/>
<path d="M7400 7906 c0 -8 9 -18 21 -21 31 -10 33 0 4 19 -21 14 -25 14 -25 2z"/>
<path d="M6440 7901 c0 -5 5 -13 10 -16 6 -3 10 -2 10 4 0 5 -4 13 -10 16 -5
3 -10 2 -10 -4z"/>
<path d="M6560 7900 c0 -9 110 -70 127 -70 13 0 -101 79 -114 80 -7 0 -13 -4
-13 -10z"/>
<path d="M6820 7890 c0 -10 92 -60 111 -60 6 0 -12 16 -40 35 -52 36 -71 43
-71 25z"/>
<path d="M6992 7864 c1 -9 22 -25 45 -35 53 -23 48 -3 -8 29 -36 21 -40 21
-37 6z"/>
<path d="M7110 7865 c0 -8 4 -15 9 -15 5 0 17 -3 27 -7 23 -9 10 13 -17 27
-15 9 -19 7 -19 -5z"/>
<path d="M6380 7862 c0 -9 44 -32 58 -32 9 1 -41 39 -50 40 -5 0 -8 -4 -8 -8z"/>
<path d="M6209 7820 c13 -11 28 -20 33 -20 6 0 -1 9 -15 20 -33 26 -49 26 -18
0z"/>
<path d="M6550 7830 c0 -10 22 -24 64 -40 37 -14 32 1 -9 28 -37 24 -55 28
-55 12z"/>
<path d="M6842 7808 c4 -14 116 -73 124 -66 6 6 -102 78 -117 78 -6 0 -9 -6
-7 -12z"/>
<path d="M4220 7789 c-22 -41 -10 -56 45 -55 26 1 30 5 30 31 0 25 -5 30 -33
36 -26 5 -35 3 -42 -12z"/>
<path d="M7320 7806 c0 -2 7 -7 16 -10 8 -3 12 -2 9 4 -6 10 -25 14 -25 6z"/>
<path d="M7580 7795 c7 -8 19 -15 27 -15 13 0 13 3 3 15 -7 8 -19 15 -27 15
-13 0 -13 -3 -3 -15z"/>
<path d="M6550 7765 c0 -8 12 -20 26 -26 38 -14 40 -5 5 21 -26 18 -31 19 -31
5z"/>
<path d="M7172 7758 c6 -17 85 -61 100 -56 6 2 -11 18 -39 36 -54 35 -67 39
-61 20z"/>
<path d="M7410 7757 c0 -12 108 -72 116 -64 5 5 -97 77 -109 77 -4 0 -7 -6 -7
-13z"/>
<path d="M6365 7730 c3 -5 8 -10 11 -10 2 0 4 5 4 10 0 6 -5 10 -11 10 -5 0
-7 -4 -4 -10z"/>
<path d="M6475 7730 c3 -5 13 -10 21 -10 8 0 12 5 9 10 -3 6 -13 10 -21 10 -8
0 -12 -4 -9 -10z"/>
<path d="M6734 7725 c26 -19 42 -19 26 0 -7 8 -20 15 -29 15 -13 -1 -13 -3 3
-15z"/>
<path d="M6880 7715 c0 -8 4 -15 9 -15 5 0 18 -3 28 -7 17 -6 17 -5 -1 15 -22
26 -36 28 -36 7z"/>
<path d="M7140 7710 c0 -9 32 -30 46 -30 4 0 -1 9 -11 20 -19 21 -35 26 -35
10z"/>
<path d="M6665 7701 c-6 -11 27 -35 65 -46 21 -7 23 -5 13 6 -20 24 -71 50
-78 40z"/>
<path d="M6452 7680 c5 -16 87 -62 102 -57 6 2 -9 16 -32 31 -57 35 -76 43
-70 26z"/>
<path d="M6570 7675 c7 -8 19 -15 27 -15 13 0 13 3 3 15 -7 8 -19 15 -27 15
-13 0 -13 -3 -3 -15z"/>
<path d="M6820 7678 c0 -13 120 -81 128 -74 4 4 -113 86 -122 86 -4 0 -6 -6
-6 -12z"/>
<path d="M6380 7658 c0 -8 14 -19 31 -25 27 -10 29 -10 18 3 -20 24 -49 37
-49 22z"/>
<path d="M7110 7655 c0 -8 4 -15 9 -15 5 0 17 -3 27 -7 23 -9 10 13 -17 27
-15 9 -19 7 -19 -5z"/>
<path d="M6620 7650 c0 -5 7 -10 16 -10 8 0 12 5 9 10 -3 6 -10 10 -16 10 -5
0 -9 -4 -9 -10z"/>
<path d="M6990 7652 c0 -9 44 -32 58 -32 9 1 -41 39 -50 40 -5 0 -8 -4 -8 -8z"/>
<path d="M7250 7640 c0 -12 53 -40 77 -40 12 0 6 8 -19 25 -39 26 -58 31 -58
15z"/>
<path d="M6840 7597 c0 -10 33 -30 113 -69 35 -18 15 3 -42 42 -66 44 -71 46
-71 27z"/>
<path d="M7220 7595 c0 -16 55 -48 72 -43 6 2 -8 16 -31 31 -31 20 -41 24 -41
12z"/>
<path d="M6550 7560 c0 -5 14 -16 30 -25 36 -18 38 -13 8 15 -24 22 -38 26
-38 10z"/>
<path d="M7160 7555 c0 -14 48 -43 105 -65 39 -15 30 -4 -34 40 -67 45 -71 46
-71 25z"/>
<path d="M6482 7528 c5 -15 28 -23 28 -10 0 5 -7 13 -16 16 -10 4 -14 1 -12
-6z"/>
<path d="M6880 7507 c0 -8 11 -19 25 -25 32 -15 32 -2 0 21 -19 14 -25 15 -25
4z"/>
<path d="M6760 7502 c0 -9 44 -32 58 -32 10 1 -38 40 -49 40 -5 0 -9 -4 -9 -8z"/>
<path d="M7142 7493 c2 -10 11 -19 21 -21 23 -5 21 10 -4 26 -18 12 -20 11
-17 -5z"/>
<path d="M6670 7486 c0 -7 8 -16 18 -19 9 -2 26 -8 37 -12 14 -5 11 1 -10 19
-34 29 -45 32 -45 12z"/>
<path d="M7396 7485 c4 -8 10 -15 14 -15 5 0 17 -3 27 -7 17 -6 17 -5 -1 15
-22 25 -48 30 -40 7z"/>
<path d="M6562 7478 c5 -15 70 -52 108 -63 17 -4 6 7 -30 34 -55 41 -85 52
-78 29z"/>
<path d="M7100 7450 c0 -12 49 -45 56 -37 6 6 -36 47 -48 47 -4 0 -8 -4 -8
-10z"/>
<path d="M6880 7436 c0 -16 59 -50 69 -40 6 6 -18 27 -51 45 -14 7 -18 6 -18
-5z"/>
<path d="M6990 7437 c0 -13 79 -52 87 -43 4 4 -70 56 -80 56 -4 0 -7 -6 -7
-13z"/>
<path d="M7252 7428 c5 -14 70 -49 78 -41 3 2 -3 9 -12 14 -9 5 -24 16 -32 24
-18 18 -39 20 -34 3z"/>
<path d="M6842 7388 c4 -12 94 -67 111 -68 19 0 2 18 -43 48 -52 34 -74 40
-68 20z"/>
<path d="M7570 7390 c0 -11 33 -30 52 -30 7 0 2 9 -12 20 -28 22 -40 25 -40
10z"/>
<path d="M7222 7373 c2 -9 21 -22 43 -29 l40 -14 -35 30 c-40 34 -53 37 -48
13z"/>
<path d="M7160 7340 c0 -12 33 -34 83 -55 49 -20 40 -6 -20 34 -49 33 -63 37
-63 21z"/>
<path d="M7063 7323 c9 -9 19 -14 23 -11 10 10 -6 28 -24 28 -15 0 -15 -1 1
-17z"/>
<path d="M6880 7301 c0 -5 7 -12 16 -15 14 -5 15 -4 4 9 -14 17 -20 19 -20 6z"/>
<path d="M7150 7281 c0 -10 51 -41 67 -41 9 1 -22 26 -49 41 -12 6 -18 6 -18
0z"/>
<path d="M7390 7280 c0 -5 14 -16 30 -25 35 -18 39 -10 8 16 -23 21 -38 24
-38 9z"/>
<path d="M7105 7241 c-6 -10 25 -31 45 -31 15 0 3 17 -20 30 -12 6 -21 7 -25
1z"/>
<path d="M7323 7173 c9 -9 19 -14 23 -11 10 10 -6 28 -24 28 -15 0 -15 -1 1
-17z"/>
<path d="M7588 7158 c12 -12 24 -19 28 -15 10 10 -16 37 -34 37 -13 0 -12 -4
6 -22z"/>
<path d="M7405 7131 c-6 -10 13 -23 79 -53 57 -27 54 -16 -9 25 -60 41 -61 41
-70 28z"/>
<path d="M5560 6845 c-34 -37 -99 -60 -259 -93 -19 -4 -36 -13 -39 -20 -6 -19
50 -15 110 8 29 11 69 20 89 20 65 0 134 48 127 90 -3 21 -3 21 -28 -5z"/>
<path d="M5900 6761 c0 -11 39 -25 47 -18 3 3 2 10 -2 16 -8 13 -45 15 -45 2z"/>
<path d="M4248 6693 c6 -2 18 -2 25 0 6 3 1 5 -13 5 -14 0 -19 -2 -12 -5z"/>
<path d="M5685 6690 c3 -5 15 -10 26 -10 10 0 19 5 19 10 0 6 -12 10 -26 10
-14 0 -23 -4 -19 -10z"/>
<path d="M5596 6625 c-11 -8 -16 -15 -10 -15 5 0 18 7 28 15 11 8 16 15 10 15
-5 0 -18 -7 -28 -15z"/>
<path d="M5785 6630 c3 -5 15 -10 25 -10 10 0 22 5 25 10 4 6 -7 10 -25 10
-18 0 -29 -4 -25 -10z"/>
<path d="M4160 6610 c0 -5 9 -10 21 -10 11 0 17 5 14 10 -3 6 -13 10 -21 10
-8 0 -14 -4 -14 -10z"/>
<path d="M8143 6580 l-22 -39 32 -6 c18 -4 72 -1 121 5 85 10 128 28 140 58 6
14 -16 16 -30 2 -19 -19 -108 -19 -149 1 -55 27 -69 24 -92 -21z"/>
<path d="M5885 6571 c6 -10 51 -8 62 2 3 4 -10 7 -31 7 -20 0 -35 -4 -31 -9z"/>
<path d="M7727 6564 c-4 -4 -7 -17 -7 -29 0 -26 -55 -90 -78 -90 -25 0 -26
-38 -2 -60 11 -10 20 -24 20 -31 0 -7 20 -36 44 -63 57 -64 94 -144 98 -211 1
-19 7 -38 13 -42 13 -10 129 -9 180 1 38 7 39 8 13 15 -14 4 -34 3 -45 -2 -10
-5 -24 -7 -30 -5 -21 8 -15 33 8 33 11 0 29 10 39 22 26 32 95 32 121 -1 21
-26 24 -25 86 32 62 58 52 134 -24 192 -25 19 -51 35 -58 35 -6 0 -20 9 -30
20 -10 11 -13 20 -7 20 7 0 12 9 12 21 0 19 -4 21 -49 15 -27 -3 -61 -10 -76
-16 -14 -5 -29 -9 -33 -8 -4 1 -15 -2 -24 -6 -18 -8 -74 43 -106 97 -9 15 -20
27 -24 27 -4 0 -8 7 -8 16 0 8 -4 13 -9 10 -5 -4 -11 -1 -13 5 -2 5 -7 7 -11
3z"/>
<path d="M8461 6544 c-12 -15 -21 -23 -21 -18 0 20 -38 -37 -59 -89 -29 -70
-25 -121 14 -179 27 -40 27 -41 10 -84 -34 -88 -12 -224 35 -224 24 0 25 18 5
67 -20 48 -19 75 6 134 17 38 19 53 10 62 -16 16 -13 144 4 190 42 107 43 111
32 132 -6 11 -10 23 -9 28 4 14 -7 7 -27 -19z"/>
<path d="M5448 6553 c12 -2 30 -2 40 0 9 3 -1 5 -23 4 -22 0 -30 -2 -17 -4z"/>
<path d="M5675 6550 c-3 -5 1 -10 9 -10 8 0 18 5 21 10 3 6 -1 10 -9 10 -8 0
-18 -4 -21 -10z"/>
<path d="M6038 6513 c7 -3 16 -2 19 1 4 3 -2 6 -13 5 -11 0 -14 -3 -6 -6z"/>
<path d="M5780 6500 c-12 -8 -9 -10 13 -10 16 0 26 4 22 10 -8 12 -16 12 -35
0z"/>
<path d="M8080 6474 c0 -8 5 -12 10 -9 6 4 8 11 5 16 -9 14 -15 11 -15 -7z"/>
<path d="M5870 6440 c0 -5 14 -10 30 -10 17 0 30 5 30 10 0 6 -13 10 -30 10
-16 0 -30 -4 -30 -10z"/>
<path d="M5150 6425 c0 -8 58 -35 75 -35 8 0 15 5 15 10 0 6 -13 10 -29 10
-17 0 -33 5 -36 10 -6 10 -25 14 -25 5z"/>
<path d="M5410 6420 c0 -5 5 -10 10 -10 6 0 10 5 10 10 0 6 -4 10 -10 10 -5 0
-10 -4 -10 -10z"/>
<path d="M5450 6420 c-13 -8 -13 -10 2 -10 9 0 20 5 23 10 8 13 -5 13 -25 0z"/>
<path d="M5660 6420 c0 -5 9 -10 20 -10 11 0 20 5 20 10 0 6 -9 10 -20 10 -11
0 -20 -4 -20 -10z"/>
<path d="M5269 6356 c16 -19 62 -29 74 -17 8 8 0 11 -26 11 -20 0 -37 5 -37
10 0 6 -5 10 -11 10 -8 0 -8 -4 0 -14z"/>
<path d="M5578 6363 c7 -3 16 -2 19 1 4 3 -2 6 -13 5 -11 0 -14 -3 -6 -6z"/>
<path d="M5760 6360 c0 -5 11 -10 25 -10 14 0 25 5 25 10 0 6 -11 10 -25 10
-14 0 -25 -4 -25 -10z"/>
<path d="M5850 6313 c0 -11 43 -22 57 -15 12 7 8 10 -21 14 -20 2 -36 3 -36 1z"/>
<path d="M5630 6288 c0 -4 11 -8 25 -8 14 0 25 4 25 10 0 5 -11 9 -25 8 -14
-1 -25 -6 -25 -10z"/>
<path d="M5398 6283 c6 -2 18 -2 25 0 6 3 1 5 -13 5 -14 0 -19 -2 -12 -5z"/>
<path d="M5748 6228 c17 -8 26 -8 34 0 9 9 4 12 -22 11 -33 0 -34 -1 -12 -11z"/>
<path d="M5528 6213 c7 -3 16 -2 19 1 4 3 -2 6 -13 5 -11 0 -14 -3 -6 -6z"/>
<path d="M6555 6210 c-8 -13 5 -13 25 0 13 8 13 10 -2 10 -9 0 -20 -4 -23 -10z"/>
<path d="M5590 6172 c0 -13 39 -32 45 -22 3 6 -1 10 -9 10 -9 0 -16 5 -16 10
0 6 -4 10 -10 10 -5 0 -10 -3 -10 -8z"/>
<path d="M6678 6153 c7 -3 16 -2 19 1 4 3 -2 6 -13 5 -11 0 -14 -3 -6 -6z"/>
<path d="M6406 6130 c7 -7 19 -7 35 -1 23 9 22 10 -10 10 -24 1 -32 -2 -25 -9z"/>
<path d="M6648 6133 c7 -3 16 -2 19 1 4 3 -2 6 -13 5 -11 0 -14 -3 -6 -6z"/>
<path d="M6190 6110 c0 -5 4 -10 9 -10 6 0 13 5 16 10 3 6 -1 10 -9 10 -9 0
-16 -4 -16 -10z"/>
<path d="M9037 6073 c-56 -64 -81 -167 -54 -224 12 -27 62 -89 70 -89 3 0 3
26 0 59 -5 53 2 96 26 156 5 11 14 33 20 48 31 76 -11 110 -62 50z"/>
<path d="M6745 6080 c-3 -5 3 -10 14 -10 12 0 21 5 21 10 0 6 -6 10 -14 10 -8
0 -18 -4 -21 -10z"/>
<path d="M6280 6060 c0 -5 11 -10 25 -10 14 0 25 5 25 10 0 6 -11 10 -25 10
-14 0 -25 -4 -25 -10z"/>
<path d="M9234 6023 c-43 -41 -53 -56 -75 -115 -23 -63 -24 -80 -4 -118 28
-55 93 -51 114 7 16 44 20 245 5 250 -5 2 -23 -9 -40 -24z"/>
<path d="M6835 6020 c3 -5 17 -10 30 -10 13 0 27 5 30 10 4 6 -8 10 -30 10
-22 0 -34 -4 -30 -10z"/>
<path d="M6380 6000 c20 -13 57 -13 65 0 4 6 -11 10 -37 10 -31 0 -39 -3 -28
-10z"/>
<path d="M6620 6000 c0 -5 6 -10 14 -10 8 0 18 5 21 10 3 6 -3 10 -14 10 -12
0 -21 -4 -21 -10z"/>
<path d="M6160 5980 c0 -5 9 -10 20 -10 11 0 20 5 20 10 0 6 -9 10 -20 10 -11
0 -20 -4 -20 -10z"/>
<path d="M6930 5966 c0 -9 30 -14 35 -6 4 6 -3 10 -14 10 -12 0 -21 -2 -21 -4z"/>
<path d="M6980 5959 c0 -5 5 -7 10 -4 6 3 10 8 10 11 0 2 -4 4 -10 4 -5 0 -10
-5 -10 -11z"/>
<path d="M7761 5877 c-18 -50 -45 -114 -62 -140 -16 -27 -29 -52 -29 -57 0 -5
12 -26 26 -47 20 -30 25 -48 22 -83 l-3 -45 45 -2 c36 -2 50 -8 73 -33 15 -16
27 -25 27 -20 0 6 5 8 10 5 8 -5 10 44 8 154 l-3 161 35 7 c19 3 54 14 77 24
41 17 41 18 45 78 3 53 1 61 -14 61 -18 0 -25 15 -10 23 4 2 0 1 -8 -2 -18 -7
-152 -5 -184 3 -22 5 -26 -1 -55 -87z"/>
<path d="M9826 5926 c2 -16 4 -35 4 -42 0 -8 3 -14 8 -14 4 0 7 11 7 25 0 14
-3 25 -7 25 -4 0 -9 8 -11 18 -2 9 -3 4 -1 -12z"/>
<path d="M6720 5946 c0 -10 28 -13 41 -5 10 6 7 9 -13 9 -16 0 -28 -2 -28 -4z"/>
<path d="M8437 5933 c-16 -15 -5 -54 20 -78 50 -45 60 -26 14 24 -17 18 -28
38 -24 47 5 15 1 18 -10 7z"/>
<path d="M6260 5926 c0 -9 39 -13 51 -5 10 6 4 9 -18 9 -18 0 -33 -2 -33 -4z"/>
<path d="M6518 5923 c7 -3 16 -2 19 1 4 3 -2 6 -13 5 -11 0 -14 -3 -6 -6z"/>
<path d="M6045 5910 c-3 -5 3 -10 15 -10 12 0 18 5 15 10 -3 6 -10 10 -15 10
-5 0 -12 -4 -15 -10z"/>
<path d="M7088 5903 c-10 -2 -18 -8 -18 -13 0 -10 38 -1 46 11 5 9 1 10 -28 2z"/>
<path d="M6840 5890 c-24 -8 -23 -8 8 -9 17 -1 32 4 32 9 0 11 -5 11 -40 0z"/>
<path d="M6595 5870 c3 -5 15 -10 26 -10 10 0 19 5 19 10 0 6 -12 10 -26 10
-14 0 -23 -4 -19 -10z"/>
<path d="M6368 5863 c7 -3 16 -2 19 1 4 3 -2 6 -13 5 -11 0 -14 -3 -6 -6z"/>
<path d="M6145 5850 c-4 -6 5 -10 19 -10 14 0 26 5 26 10 0 6 -9 10 -19 10
-11 0 -23 -4 -26 -10z"/>
<path d="M6990 5844 c-19 -7 -43 -10 -54 -7 -12 3 -16 1 -12 -6 11 -18 69 -12
96 9 28 22 20 23 -30 4z"/>
<path d="M9820 5840 c-9 -6 -10 -10 -3 -10 6 0 15 5 18 10 8 12 4 12 -15 0z"/>
<path d="M6700 5810 c0 -5 11 -10 25 -10 14 0 25 5 25 10 0 6 -11 10 -25 10
-14 0 -25 -4 -25 -10z"/>
<path d="M9880 5805 c-13 -16 -6 -65 10 -65 6 0 10 18 10 40 0 44 -2 47 -20
25z"/>
<path d="M6240 5790 c0 -5 11 -10 24 -10 14 0 28 5 31 10 4 6 -7 10 -24 10
-17 0 -31 -4 -31 -10z"/>
<path d="M6886 5775 c-15 -8 -42 -15 -58 -15 -17 0 -27 -4 -23 -10 3 -5 13
-10 21 -10 20 0 94 33 94 42 0 10 0 10 -34 -7z"/>
<path d="M6315 5749 c8 -20 40 -28 75 -18 21 6 18 7 -15 8 -23 1 -47 7 -54 14
-10 10 -11 9 -6 -4z"/>
<path d="M6588 5733 c7 -3 16 -2 19 1 4 3 -2 6 -13 5 -11 0 -14 -3 -6 -6z"/>
<path d="M6750 5697 c-83 -56 -159 -89 -186 -83 -24 6 -25 6 -10 -9 14 -14 21
-15 51 -4 19 7 35 17 35 21 0 4 6 8 13 8 16 0 157 89 142 90 -6 0 -26 -11 -45
-23z"/>
<path d="M6430 5680 c0 -6 7 -10 15 -10 8 0 15 2 15 4 0 2 -7 6 -15 10 -8 3
-15 1 -15 -4z"/>
<path d="M9288 5487 c-48 -28 -89 -56 -92 -63 -5 -13 74 -202 160 -382 24 -51
44 -95 44 -97 0 -3 16 -39 35 -81 19 -41 35 -77 35 -79 0 -3 14 -34 30 -70
116 -252 115 -234 19 -230 -42 1 -74 7 -79 15 -4 6 -10 11 -14 11 -17 -2 -23
1 -46 22 -14 12 -38 29 -55 37 -16 8 -83 45 -148 83 -65 37 -120 67 -123 67
-3 0 -10 5 -17 10 -10 9 -93 58 -210 123 -12 6 -24 14 -27 17 -3 3 -34 20 -70
39 -36 19 -94 52 -129 74 -56 34 -68 38 -105 31 -22 -3 -72 -26 -111 -49 -39
-24 -87 -51 -107 -61 -44 -21 -47 -27 -91 -189 -20 -71 -59 -215 -87 -320 -29
-104 -60 -217 -70 -250 -9 -33 -36 -130 -59 -215 -24 -85 -58 -211 -77 -280
-19 -69 -38 -141 -44 -160 -17 -64 -72 -245 -81 -268 -5 -13 -9 -32 -9 -43 0
-10 -4 -27 -9 -37 -6 -9 -23 -73 -40 -142 -16 -69 -39 -159 -51 -200 -11 -41
-29 -106 -39 -145 -20 -74 -101 -369 -151 -547 -16 -59 -30 -113 -30 -122 0
-25 30 -46 66 -46 46 0 69 13 82 47 13 34 92 304 125 428 14 50 45 160 71 245
26 85 58 193 72 240 14 47 37 121 51 165 14 44 29 94 33 110 5 17 18 62 30
100 26 83 29 96 69 245 29 104 60 214 81 280 4 14 15 50 24 80 8 30 41 141 72
245 30 105 64 222 75 260 11 39 24 84 29 100 53 190 133 452 140 459 4 4 81
-34 169 -85 89 -52 174 -101 189 -109 106 -59 131 -73 167 -94 22 -13 78 -45
125 -71 47 -27 87 -51 90 -54 3 -3 41 -23 84 -45 83 -40 101 -42 227 -20 50 8
109 -21 131 -66 77 -157 161 -343 193 -424 38 -98 38 -98 104 -140 104 -67
189 -111 197 -104 7 7 -12 66 -47 143 -26 59 -89 218 -89 226 0 4 17 3 39 -2
164 -37 463 -23 534 24 18 12 20 24 18 105 -1 59 2 92 8 92 6 0 11 4 11 8 0 5
-24 5 -52 1 -99 -14 -372 -10 -443 6 -129 30 -229 70 -256 101 -9 11 -31 57
-49 104 -18 47 -36 90 -40 95 -4 6 -17 39 -30 75 -36 100 -99 261 -119 305
-11 22 -31 72 -46 110 -15 39 -33 84 -40 100 -17 38 -80 194 -106 263 -14 35
-26 52 -37 51 -9 0 -56 -24 -104 -52z"/>
<path d="M7156 5458 c9 -59 27 -118 35 -124 5 -3 9 -13 9 -22 0 -9 9 -35 19
-57 11 -22 25 -61 31 -86 10 -38 18 -49 46 -63 19 -9 36 -16 37 -16 2 0 3 55
3 123 0 67 4 134 7 150 6 20 4 27 -8 27 -8 0 -15 4 -15 10 0 5 -12 13 -27 16
-31 8 -90 39 -114 60 -24 21 -29 17 -23 -18z"/>
<path d="M7713 5433 c-21 -8 -15 -20 13 -27 32 -8 41 -1 24 19 -13 16 -17 17
-37 8z"/>
<path d="M7868 5423 c12 -2 30 -2 40 0 9 3 -1 5 -23 4 -22 0 -30 -2 -17 -4z"/>
<path d="M7639 5264 c-12 -34 -7 -39 28 -22 38 18 43 48 8 48 -18 0 -28 -7
-36 -26z"/>
<path d="M5525 4370 c-38 -27 -74 -53 -80 -57 -51 -41 -220 -140 -371 -216
l-131 -67 -5 -150 c-5 -133 -9 -156 -30 -200 l-24 -49 25 15 c14 8 96 64 181
125 179 128 327 229 335 229 2 0 15 8 26 18 106 85 135 131 149 234 21 159 21
168 8 167 -7 0 -44 -22 -83 -49z"/>
<path d="M9480 3858 c0 -79 -4 -148 -8 -154 -4 -6 -18 -15 -32 -19 -14 -4 -36
-15 -50 -24 -14 -9 -43 -26 -65 -36 -22 -11 -42 -22 -45 -25 -3 -4 -35 -24
-72 -45 l-68 -39 28 -18 c15 -10 30 -18 34 -18 3 0 51 40 106 90 125 112 145
121 184 83 15 -14 28 -32 28 -39 0 -7 3 -14 8 -16 4 -1 16 -20 26 -40 16 -33
24 -38 53 -38 51 0 100 -25 118 -60 l16 -31 32 20 c18 10 61 35 97 54 117 62
215 118 224 127 9 9 14 6 -189 126 -82 48 -209 123 -281 166 -72 43 -134 78
-138 78 -3 0 -6 -64 -6 -142z"/>
<path d="M8678 3598 l4 -43 116 -68 c99 -57 298 -174 367 -215 11 -7 88 -52
170 -102 l150 -90 5 28 c9 42 0 62 -39 86 -37 24 -221 132 -256 152 -11 6 -45
26 -75 44 -30 18 -68 41 -85 50 -40 23 -183 107 -270 159 -38 22 -74 41 -80
41 -6 0 -9 -18 -7 -42z"/>
<path d="M8680 3425 l0 -65 45 -28 c25 -15 45 -33 45 -40 0 -7 4 -10 10 -7 5
3 25 -5 42 -18 18 -13 55 -34 83 -48 27 -13 58 -32 69 -41 11 -10 29 -21 40
-24 12 -4 23 -10 26 -14 3 -4 32 -22 65 -40 33 -18 83 -47 110 -65 28 -18 70
-43 95 -56 25 -13 47 -26 50 -29 5 -5 52 -32 98 -56 24 -12 27 -12 33 4 11 33
3 125 -12 134 -8 5 -86 51 -174 103 -88 52 -161 95 -162 95 -2 0 -36 19 -76
43 -269 162 -365 217 -375 217 -8 0 -12 -22 -12 -65z"/>
<path d="M8832 2880 c0 -14 2 -19 5 -12 2 6 2 18 0 25 -3 6 -5 1 -5 -13z"/>
<path d="M6916 2835 c-41 -98 -107 -139 -222 -138 -104 0 -143 33 -156 132
l-3 23 -27 -25 c-15 -14 -31 -43 -37 -65 -6 -21 -20 -51 -32 -66 -38 -48 -69
-141 -69 -206 0 -57 3 -63 40 -104 22 -24 67 -58 101 -76 80 -42 143 -40 210
8 110 79 148 100 199 112 30 6 75 17 100 23 58 14 264 136 348 207 54 45 68
63 79 104 19 65 8 94 -17 46 -16 -32 -72 -90 -85 -90 -4 0 -33 -18 -66 -41
-34 -23 -104 -66 -157 -96 -82 -46 -107 -55 -162 -60 -74 -6 -119 7 -118 34 1
10 -2 32 -5 48 -6 26 -2 33 25 50 54 34 87 92 88 152 0 64 -14 76 -34 28z"/>
<path d="M10480 5665 c0 -8 7 -15 16 -15 14 0 14 3 4 15 -7 8 -14 15 -16 15
-2 0 -4 -7 -4 -15z"/>
<path d="M3392 1883 c-14 -6 -36 -43 -25 -43 4 0 16 12 26 25 10 14 17 25 15
24 -2 0 -9 -3 -16 -6z"/>
</g>
</svg>
